<svg aria-hidden="true" style="position: absolute; width: 0; height: 0; overflow: hidden;" version="1.1" xmlns="http://www.w3.org/2000/svg" xmlns:xlink="http://www.w3.org/1999/xlink">
<defs>
<symbol id="icon-dacki" viewBox="0 0 64 32">
<path fill="#217EAF" d="M13.325 5.825c-0.245 0.040-0.57 0.11-0.725 0.155-0.425 0.12-1.050 0.44-1.31 0.665-0.265 0.235-0.26 0.24-0.41-0.225-0.070-0.215-0.1-0.255-0.185-0.235-0.050 0.015-0.105 0.045-0.12 0.065s0.055 0.205 0.145 0.405c0.205 0.445 0.165 0.545-0.11 0.29-0.1-0.095-0.34-0.315-0.525-0.485l-0.34-0.31-0.3 0.26-0.295 0.265 0.725 0.365c0.67 0.33 0.725 0.37 0.675 0.46-0.030 0.055-0.070 0.1-0.095 0.1-0.040 0-1.87-0.63-2.165-0.745-0.13-0.050-0.155-0.030-0.52 0.375-0.21 0.23-0.375 0.435-0.36 0.445 0.020 0.020 2.63 0.275 2.82 0.275 0.045 0 0.070 0.025 0.055 0.060-0.54 1.23-0.66 2.060-0.43 2.89 0.165 0.605 0.365 0.92 0.925 1.485l0.505 0.515-0.18 0.030c-1.43 0.245-3.065 0.98-5.245 2.36-0.775 0.495-0.845 0.525-1.065 0.495-0.53-0.070-1.575-0.79-3.145-2.175-0.345-0.3-0.63-0.53-0.64-0.51-0.010 0.030 0.405 1.31 0.515 1.575 0.090 0.22-0.3-0.22-0.85-0.955-0.315-0.42-0.59-0.775-0.615-0.79-0.030-0.020-0.035 0.040-0.005 0.16 0.020 0.1 0.11 0.5 0.195 0.885 0.185 0.83 0.345 1.33 0.575 1.775 0.105 0.205 0.185 0.465 0.22 0.695 0.17 1.105 0.95 2.62 2 3.865 1.185 1.405 2.81 2.44 4.54 2.89 0.495 0.125 1.345 0.25 1.755 0.25h0.32l-0.035 0.485-0.035 0.49 0.175 0.285c0.195 0.32 0.705 0.96 1.005 1.255 0.23 0.235 0.625 0.425 0.68 0.335 0.050-0.085-0.020-0.37-0.2-0.785-0.080-0.2-0.15-0.38-0.15-0.405s0.255 0.005 0.565 0.070c0.635 0.135 1.070 0.15 1.21 0.050 0.090-0.065 0.085-0.070-0.045-0.205-0.075-0.075-0.43-0.275-0.79-0.45l-0.66-0.31 0.385-0.115c0.355-0.105 0.54-0.215 0.47-0.28-0.050-0.050-0.67-0.12-1.12-0.12-0.52 0-0.615-0.025-0.615-0.15 0-0.080 0.065-0.095 0.515-0.125 0.28-0.015 0.79-0.025 1.125-0.015l0.62 0.015 0.265 0.745c0.15 0.41 0.32 0.8 0.385 0.865 0.065 0.070 0.395 0.265 0.74 0.43 0.58 0.29 0.65 0.31 0.97 0.31 0.235 0 0.355-0.020 0.365-0.065 0.015-0.035-0.15-0.24-0.36-0.455l-0.38-0.395 0.54-0.18c0.8-0.265 1.105-0.51 0.785-0.63-0.145-0.055-0.655-0.060-1.080-0.005-0.16 0.020-0.29 0.025-0.29 0.015s0.115-0.145 0.255-0.3c0.155-0.165 0.245-0.31 0.23-0.36-0.015-0.070 0.045-0.095 0.35-0.145 1.010-0.17 2.040-0.72 2.95-1.58 0.575-0.54 0.87-0.925 1.145-1.5 0.27-0.565 0.445-1.165 0.55-1.885 0.14-0.965 0.020-1.75-0.41-2.63-0.18-0.37-0.295-0.535-0.6-0.835-0.595-0.59-1.395-1.075-2.28-1.38-0.35-0.125-0.39-0.17-0.39-0.47 0-0.12 0.080-0.23 0.425-0.57 0.235-0.23 0.51-0.53 0.61-0.66 0.14-0.19 0.2-0.23 0.25-0.185 0.1 0.080 0.355 0.020 1.055-0.26l0.635-0.255 0.625 0.015c0.615 0.015 0.625 0.015 0.64-0.1 0.015-0.095-0.025-0.13-0.225-0.22-0.13-0.055-0.25-0.11-0.26-0.12s0.055-0.075 0.14-0.15c0.24-0.2 0.455-0.605 0.455-0.86 0-0.135-0.025-0.225-0.065-0.24s-0.245 0.055-0.465 0.145c-0.73 0.32-0.905 0.295-1.68-0.23-0.375-0.255-0.39-0.27-0.545-0.66-0.2-0.5-0.385-0.81-0.72-1.23-0.555-0.685-1.355-1.26-2.13-1.52-0.515-0.17-1.235-0.21-1.92-0.1zM14.9 23.495c-0.125 0.045-0.42 0.195-0.665 0.325l-0.435 0.24-0.070-0.17c-0.040-0.095-0.090-0.23-0.105-0.305l-0.035-0.13 0.57-0.020c0.31-0.005 0.655-0.015 0.765-0.020l0.2-0.010-0.225 0.090z"></path>
<path fill="#24E3A9" d="M36.3 7.005c-0.725 0.11-1.315 0.385-1.98 0.92l-0.345 0.28-0.36-0.020c-0.295-0.015-0.4-0.045-0.6-0.175-0.13-0.085-0.245-0.145-0.255-0.135-0.050 0.050 0.27 0.54 0.475 0.725l0.24 0.215-0.365-0.035c-0.42-0.035-0.42-0.025-0.070 0.37l0.2 0.225-0.090 0.18c-0.16 0.315-0.3 0.96-0.3 1.395 0 0.745 0.265 1.425 0.78 1.99l0.27 0.3-0.365 0.035c-1.285 0.115-2.22 0.395-3.66 1.1-0.465 0.23-1.265 0.665-1.775 0.97-0.76 0.455-0.96 0.555-1.125 0.555-0.48 0-1.54-0.695-3.175-2.085-0.205-0.175-0.38-0.3-0.39-0.275-0.015 0.055 0.32 1.075 0.425 1.275 0.185 0.37-0.13 0.060-0.71-0.69-0.46-0.59-0.61-0.775-0.64-0.775-0.040 0 0.31 1.47 0.445 1.85 0.070 0.205 0.195 0.49 0.27 0.63 0.080 0.14 0.17 0.4 0.2 0.575 0.31 1.8 1.865 3.925 3.705 5.070 1.395 0.865 2.795 1.27 4.41 1.275 0.625 0 0.565-0.12 0.475 0.93l-0.055 0.7 0.135 0.255c0.155 0.275 0.735 1.020 1.045 1.33 0.235 0.235 0.63 0.425 0.685 0.335 0.050-0.085-0.020-0.37-0.2-0.785-0.080-0.2-0.15-0.38-0.15-0.405s0.255 0.005 0.565 0.070c0.635 0.135 1.070 0.15 1.21 0.050 0.090-0.065 0.085-0.070-0.045-0.205-0.075-0.075-0.43-0.275-0.79-0.45l-0.655-0.31 0.345-0.105c0.355-0.11 0.57-0.225 0.515-0.285-0.060-0.055-0.66-0.125-1.145-0.125-0.26 0-0.505-0.020-0.545-0.045-0.065-0.040-0.060-0.165 0.025-0.77l0.030-0.185h1.575l0.265 0.76c0.145 0.42 0.29 0.815 0.33 0.875s0.17 0.18 0.295 0.265c0.295 0.205 1.165 0.59 1.42 0.63s0.455-0.010 0.455-0.11c0-0.045-0.155-0.245-0.35-0.44-0.19-0.2-0.35-0.375-0.35-0.39s0.195-0.090 0.44-0.165c0.745-0.23 1.11-0.48 0.925-0.63-0.085-0.075-0.89-0.085-1.28-0.015l-0.205 0.030 0.24-0.26c0.13-0.15 0.26-0.31 0.285-0.36 0.090-0.17-0.17-0.1-0.78 0.215-0.325 0.165-0.605 0.285-0.63 0.26-0.045-0.045-0.255-0.625-0.235-0.64 0.010-0.005 0.335-0.035 0.725-0.070 1.56-0.125 2.615-0.59 3.715-1.64 0.885-0.84 1.32-1.78 1.46-3.145 0.065-0.635 0-1.12-0.24-1.74-0.275-0.7-0.845-1.32-1.625-1.765-0.305-0.17-0.345-0.21-0.39-0.4-0.085-0.335-0.070-0.38 0.215-0.61 0.265-0.205 0.61-0.58 0.9-0.965 0.075-0.1 0.165-0.175 0.2-0.16 0.075 0.030 0.535-0.12 1.105-0.355 0.445-0.18 0.45-0.185 1.060-0.165 0.63 0.015 0.76-0.020 0.7-0.185-0.020-0.040-0.135-0.12-0.265-0.175l-0.23-0.1 0.23-0.25c0.13-0.14 0.27-0.33 0.31-0.425 0.095-0.225 0.090-0.52-0.005-0.555-0.040-0.015-0.275 0.050-0.52 0.15-0.26 0.105-0.53 0.18-0.65 0.18-0.25 0-0.575-0.155-1.115-0.535-0.335-0.235-0.415-0.32-0.565-0.61-0.51-0.97-1.465-1.8-2.455-2.13-0.445-0.155-1.095-0.2-1.62-0.12z"></path>
<path fill="#17D147" d="M54.035 7.65c-0.135 0.31-0.17 0.99-0.085 1.455 0.075 0.38 0.305 0.85 0.55 1.115 0.12 0.125 0.185 0.23 0.155 0.23-0.18 0-0.625-0.305-1.020-0.705l-0.435-0.44 0.030 0.21c0.085 0.545 0.495 1.16 0.96 1.44 0.1 0.060 0.19 0.115 0.2 0.12 0.010 0.010-0.030 0.090-0.085 0.185-0.14 0.235-0.255 0.82-0.255 1.315 0 0.775 0.3 1.435 0.905 1.995 0.18 0.17 0.285 0.3 0.265 0.345-0.020 0.050-0.165 0.080-0.535 0.105-1.36 0.095-2.69 0.585-4.6 1.7-0.45 0.265-0.9 0.515-1 0.555-0.435 0.18-1.27 0.040-1.765-0.295-0.43-0.295-0.55-0.725-0.38-1.38 0.055-0.205 0.090-0.385 0.075-0.4s-0.11 0.070-0.215 0.185c-0.18 0.205-0.305 0.515-0.375 0.935l-0.030 0.19-0.155-0.14c-0.265-0.255-0.305-0.39-0.275-0.895 0.015-0.245 0.040-0.49 0.060-0.54 0.020-0.045 0.015-0.085-0.010-0.085-0.060 0-0.29 0.41-0.395 0.71-0.16 0.445-0.055 1.31 0.205 1.71 0.070 0.11 0.070 0.11-0.265 0.090-0.185-0.010-0.39 0.005-0.46 0.035-0.115 0.045-0.11 0.050 0.080 0.050 0.115 0.005 0.315 0.065 0.475 0.14 0.265 0.14 0.275 0.15 0.645 0.865 1.135 2.19 1.865 3.020 3.31 3.775 0.885 0.46 1.61 0.675 2.65 0.78 0.415 0.045 0.585 0.080 0.57 0.12-0.010 0.035-0.035 0.34-0.055 0.68l-0.030 0.62 0.165 0.285c0.255 0.445 1.005 1.315 1.25 1.455 0.48 0.28 0.55 0.135 0.27-0.55-0.1-0.24-0.18-0.46-0.18-0.495 0-0.040 0.175-0.020 0.565 0.060 0.77 0.16 1.235 0.16 1.235-0.010 0-0.125-0.225-0.28-0.87-0.595l-0.64-0.31 0.34-0.105c0.34-0.105 0.57-0.225 0.52-0.28-0.060-0.055-0.71-0.13-1.19-0.13-0.59 0-0.59 0-0.535-0.425l0.030-0.275h1.72l0.225 0.64c0.28 0.81 0.395 0.935 1.2 1.295 0.315 0.145 0.67 0.275 0.785 0.295 0.265 0.040 0.465-0.005 0.465-0.115 0-0.045-0.17-0.245-0.375-0.445-0.425-0.42-0.435-0.385 0.175-0.57 0.45-0.135 0.685-0.25 0.84-0.415 0.105-0.11 0.105-0.125 0.035-0.185-0.090-0.075-0.905-0.085-1.285-0.025l-0.205 0.035 0.29-0.34c0.27-0.32 0.32-0.355 0.675-0.475 0.415-0.135 0.83-0.35 1.225-0.635 0.405-0.29 1.070-0.965 1.255-1.27 0.355-0.58 0.62-1.555 0.62-2.26 0-0.355-0.145-0.92-0.34-1.325-0.26-0.545-1.045-1.205-1.83-1.54-0.2-0.085-0.26-0.135-0.27-0.235-0.015-0.105 0.010-0.14 0.125-0.18 0.415-0.155 0.73-0.36 1.125-0.74 0.235-0.23 0.485-0.495 0.55-0.585 0.090-0.135 0.15-0.175 0.265-0.175 0.2 0 0.88-0.2 1.45-0.425 0.345-0.135 0.52-0.175 0.765-0.175 0.335 0 0.43-0.075 0.32-0.25-0.045-0.070-0.020-0.115 0.12-0.255 0.22-0.215 0.35-0.545 0.275-0.69-0.035-0.060-0.065-0.105-0.080-0.105-0.010 0-0.195 0.065-0.415 0.145-0.755 0.28-0.965 0.255-1.795-0.235-0.39-0.23-0.415-0.255-0.61-0.63-0.47-0.91-1.33-1.67-2.235-1.98-0.255-0.085-0.495-0.125-0.91-0.14-0.94-0.035-1.645 0.115-2.225 0.47-0.335 0.205-0.415 0.2-0.73-0.045-0.435-0.345-0.725-0.91-0.8-1.555-0.020-0.195-0.055-0.32-0.070-0.28zM57.3 22.97c0 0.025-0.825 0.48-0.875 0.48-0.035 0-0.19-0.35-0.165-0.375 0.010-0.010 0.23-0.040 0.49-0.065s0.49-0.050 0.515-0.055c0.020 0 0.035 0.005 0.035 0.015z"></path>
</symbol>
</defs>
</svg>
